<mxfile host="app.diagrams.net" modified="2023-12-06T04:17:10.207Z" agent="Mozilla/5.0 (Windows NT 10.0; Win64; x64) AppleWebKit/537.36 (KHTML, like Gecko) Chrome/119.0.0.0 Safari/537.36" etag="vFRhFYwfedLHpzjeEb-9" version="22.1.5" type="device">
  <diagram name="Page-1" id="dQq_sxYRf2Paqsmh5ATd">
    <mxGraphModel dx="1120" dy="478" grid="1" gridSize="10" guides="1" tooltips="1" connect="1" arrows="1" fold="1" page="1" pageScale="1" pageWidth="850" pageHeight="1100" math="0" shadow="0">
      <root>
        <mxCell id="0" />
        <mxCell id="1" parent="0" />
        <mxCell id="VEwzymZRehj3RaECK4DL-2" value="" style="edgeStyle=orthogonalEdgeStyle;rounded=0;orthogonalLoop=1;jettySize=auto;html=1;" edge="1" parent="1" source="i5XwxwAUIkd_oakhZbJK-1" target="VEwzymZRehj3RaECK4DL-1">
          <mxGeometry relative="1" as="geometry" />
        </mxCell>
        <mxCell id="i5XwxwAUIkd_oakhZbJK-1" value="start" style="ellipse;whiteSpace=wrap;html=1;" parent="1" vertex="1">
          <mxGeometry x="320" y="40" width="120" height="80" as="geometry" />
        </mxCell>
        <mxCell id="VEwzymZRehj3RaECK4DL-5" value="" style="edgeStyle=orthogonalEdgeStyle;rounded=0;orthogonalLoop=1;jettySize=auto;html=1;" edge="1" parent="1" source="VEwzymZRehj3RaECK4DL-1" target="VEwzymZRehj3RaECK4DL-4">
          <mxGeometry relative="1" as="geometry" />
        </mxCell>
        <mxCell id="VEwzymZRehj3RaECK4DL-1" value="&lt;div&gt;struct Student{&lt;/div&gt;&lt;div&gt;char fullName[50];&lt;span style=&quot;&quot;&gt;&lt;/span&gt;&lt;/div&gt;&lt;div&gt;&lt;span style=&quot;&quot;&gt;&lt;span style=&quot;&quot;&gt;&lt;span style=&quot;white-space: pre;&quot;&gt;&amp;nbsp;&amp;nbsp;&amp;nbsp;&amp;nbsp;&lt;/span&gt;&lt;/span&gt;int age;&lt;/span&gt;&lt;/div&gt;&lt;div&gt;&lt;span style=&quot;&quot;&gt;&lt;span style=&quot;&quot;&gt;&lt;span style=&quot;white-space: pre;&quot;&gt;&amp;nbsp;&amp;nbsp;&amp;nbsp;&amp;nbsp;&lt;/span&gt;&lt;/span&gt;char phone[15];&lt;/span&gt;&lt;/div&gt;&lt;div&gt;&lt;span style=&quot;&quot;&gt;&lt;span style=&quot;&quot;&gt;&lt;span style=&quot;white-space: pre;&quot;&gt;&amp;nbsp;&amp;nbsp;&amp;nbsp;&amp;nbsp;&lt;/span&gt;&lt;/span&gt;char email[50];&lt;/span&gt;&lt;/div&gt;&lt;div&gt;};&amp;nbsp;&lt;/div&gt;" style="rounded=0;whiteSpace=wrap;html=1;" vertex="1" parent="1">
          <mxGeometry x="295" y="160" width="170" height="100" as="geometry" />
        </mxCell>
        <mxCell id="VEwzymZRehj3RaECK4DL-8" value="" style="edgeStyle=orthogonalEdgeStyle;rounded=0;orthogonalLoop=1;jettySize=auto;html=1;" edge="1" parent="1" source="VEwzymZRehj3RaECK4DL-3" target="VEwzymZRehj3RaECK4DL-7">
          <mxGeometry relative="1" as="geometry" />
        </mxCell>
        <mxCell id="VEwzymZRehj3RaECK4DL-3" value="&lt;div&gt;printf(&quot;Nhap so luong sinh vien: &quot;);&lt;/div&gt;&lt;div&gt;scanf(&quot;%d&quot;,&amp;amp;numStudents);&lt;span style=&quot;&quot;&gt;&lt;/span&gt;&lt;/div&gt;" style="shape=parallelogram;perimeter=parallelogramPerimeter;whiteSpace=wrap;html=1;fixedSize=1;" vertex="1" parent="1">
          <mxGeometry x="270" y="410" width="220" height="60" as="geometry" />
        </mxCell>
        <mxCell id="VEwzymZRehj3RaECK4DL-6" value="" style="edgeStyle=orthogonalEdgeStyle;rounded=0;orthogonalLoop=1;jettySize=auto;html=1;" edge="1" parent="1" source="VEwzymZRehj3RaECK4DL-4" target="VEwzymZRehj3RaECK4DL-3">
          <mxGeometry relative="1" as="geometry" />
        </mxCell>
        <mxCell id="VEwzymZRehj3RaECK4DL-4" value="&lt;div&gt;i&lt;/div&gt;&lt;div&gt;numStudents;&lt;span style=&quot;&quot;&gt;&lt;/span&gt;&lt;/div&gt;" style="rounded=0;whiteSpace=wrap;html=1;" vertex="1" parent="1">
          <mxGeometry x="320" y="310" width="120" height="60" as="geometry" />
        </mxCell>
        <mxCell id="VEwzymZRehj3RaECK4DL-10" value="" style="edgeStyle=orthogonalEdgeStyle;rounded=0;orthogonalLoop=1;jettySize=auto;html=1;" edge="1" parent="1" source="VEwzymZRehj3RaECK4DL-7" target="VEwzymZRehj3RaECK4DL-9">
          <mxGeometry relative="1" as="geometry" />
        </mxCell>
        <mxCell id="VEwzymZRehj3RaECK4DL-7" value="struct Student students[numStudents]" style="rounded=0;whiteSpace=wrap;html=1;" vertex="1" parent="1">
          <mxGeometry x="260" y="510" width="240" height="60" as="geometry" />
        </mxCell>
        <mxCell id="VEwzymZRehj3RaECK4DL-12" value="" style="edgeStyle=orthogonalEdgeStyle;rounded=0;orthogonalLoop=1;jettySize=auto;html=1;" edge="1" parent="1" source="VEwzymZRehj3RaECK4DL-9" target="VEwzymZRehj3RaECK4DL-11">
          <mxGeometry relative="1" as="geometry" />
        </mxCell>
        <mxCell id="VEwzymZRehj3RaECK4DL-15" value="" style="edgeStyle=orthogonalEdgeStyle;rounded=0;orthogonalLoop=1;jettySize=auto;html=1;" edge="1" parent="1" source="VEwzymZRehj3RaECK4DL-9" target="VEwzymZRehj3RaECK4DL-14">
          <mxGeometry relative="1" as="geometry" />
        </mxCell>
        <mxCell id="VEwzymZRehj3RaECK4DL-9" value="i&amp;lt;numStudents" style="rhombus;whiteSpace=wrap;html=1;" vertex="1" parent="1">
          <mxGeometry x="320" y="640" width="120" height="80" as="geometry" />
        </mxCell>
        <mxCell id="VEwzymZRehj3RaECK4DL-17" value="" style="edgeStyle=orthogonalEdgeStyle;rounded=0;orthogonalLoop=1;jettySize=auto;html=1;" edge="1" parent="1" source="VEwzymZRehj3RaECK4DL-11" target="VEwzymZRehj3RaECK4DL-16">
          <mxGeometry relative="1" as="geometry" />
        </mxCell>
        <mxCell id="VEwzymZRehj3RaECK4DL-11" value="students[i].fullName&lt;br&gt;students[i].age&lt;br&gt;students[i].phone&lt;br&gt;students[i].email" style="shape=parallelogram;perimeter=parallelogramPerimeter;whiteSpace=wrap;html=1;fixedSize=1;" vertex="1" parent="1">
          <mxGeometry x="520" y="645" width="170" height="70" as="geometry" />
        </mxCell>
        <mxCell id="VEwzymZRehj3RaECK4DL-13" value="true" style="text;html=1;align=center;verticalAlign=middle;resizable=0;points=[];autosize=1;strokeColor=none;fillColor=none;" vertex="1" parent="1">
          <mxGeometry x="460" y="650" width="40" height="30" as="geometry" />
        </mxCell>
        <mxCell id="VEwzymZRehj3RaECK4DL-21" value="" style="edgeStyle=orthogonalEdgeStyle;rounded=0;orthogonalLoop=1;jettySize=auto;html=1;" edge="1" parent="1" source="VEwzymZRehj3RaECK4DL-14" target="VEwzymZRehj3RaECK4DL-20">
          <mxGeometry relative="1" as="geometry" />
        </mxCell>
        <mxCell id="VEwzymZRehj3RaECK4DL-14" value="FILE *file = fopen(&quot;students.txt&quot;,&quot;w+&quot;)" style="rounded=0;whiteSpace=wrap;html=1;" vertex="1" parent="1">
          <mxGeometry x="265" y="770" width="230" height="60" as="geometry" />
        </mxCell>
        <mxCell id="VEwzymZRehj3RaECK4DL-18" style="edgeStyle=orthogonalEdgeStyle;rounded=0;orthogonalLoop=1;jettySize=auto;html=1;" edge="1" parent="1" source="VEwzymZRehj3RaECK4DL-16">
          <mxGeometry relative="1" as="geometry">
            <mxPoint x="380" y="600" as="targetPoint" />
            <Array as="points">
              <mxPoint x="790" y="600" />
              <mxPoint x="790" y="600" />
            </Array>
          </mxGeometry>
        </mxCell>
        <mxCell id="VEwzymZRehj3RaECK4DL-16" value="i++" style="rounded=0;whiteSpace=wrap;html=1;" vertex="1" parent="1">
          <mxGeometry x="730" y="650" width="120" height="60" as="geometry" />
        </mxCell>
        <mxCell id="VEwzymZRehj3RaECK4DL-19" value="false" style="text;html=1;align=center;verticalAlign=middle;resizable=0;points=[];autosize=1;strokeColor=none;fillColor=none;" vertex="1" parent="1">
          <mxGeometry x="375" y="728" width="50" height="30" as="geometry" />
        </mxCell>
        <mxCell id="VEwzymZRehj3RaECK4DL-23" value="" style="edgeStyle=orthogonalEdgeStyle;rounded=0;orthogonalLoop=1;jettySize=auto;html=1;" edge="1" parent="1" source="VEwzymZRehj3RaECK4DL-20" target="VEwzymZRehj3RaECK4DL-22">
          <mxGeometry relative="1" as="geometry" />
        </mxCell>
        <mxCell id="VEwzymZRehj3RaECK4DL-25" value="" style="edgeStyle=orthogonalEdgeStyle;rounded=0;orthogonalLoop=1;jettySize=auto;html=1;" edge="1" parent="1" source="VEwzymZRehj3RaECK4DL-20" target="VEwzymZRehj3RaECK4DL-24">
          <mxGeometry relative="1" as="geometry" />
        </mxCell>
        <mxCell id="VEwzymZRehj3RaECK4DL-20" value="file == NULL" style="rhombus;whiteSpace=wrap;html=1;" vertex="1" parent="1">
          <mxGeometry x="330" y="870" width="100" height="80" as="geometry" />
        </mxCell>
        <mxCell id="VEwzymZRehj3RaECK4DL-22" value="KhÃ´ng the mo file de ghi." style="shape=parallelogram;perimeter=parallelogramPerimeter;whiteSpace=wrap;html=1;fixedSize=1;" vertex="1" parent="1">
          <mxGeometry x="480" y="880" width="170" height="60" as="geometry" />
        </mxCell>
        <mxCell id="VEwzymZRehj3RaECK4DL-28" value="" style="edgeStyle=orthogonalEdgeStyle;rounded=0;orthogonalLoop=1;jettySize=auto;html=1;" edge="1" parent="1" source="VEwzymZRehj3RaECK4DL-24" target="VEwzymZRehj3RaECK4DL-27">
          <mxGeometry relative="1" as="geometry" />
        </mxCell>
        <mxCell id="VEwzymZRehj3RaECK4DL-36" value="" style="edgeStyle=orthogonalEdgeStyle;rounded=0;orthogonalLoop=1;jettySize=auto;html=1;" edge="1" parent="1" source="VEwzymZRehj3RaECK4DL-24" target="VEwzymZRehj3RaECK4DL-35">
          <mxGeometry relative="1" as="geometry" />
        </mxCell>
        <mxCell id="VEwzymZRehj3RaECK4DL-24" value="i&amp;lt;numStudents" style="rhombus;whiteSpace=wrap;html=1;" vertex="1" parent="1">
          <mxGeometry x="325" y="1030" width="110" height="80" as="geometry" />
        </mxCell>
        <mxCell id="VEwzymZRehj3RaECK4DL-33" value="" style="edgeStyle=orthogonalEdgeStyle;rounded=0;orthogonalLoop=1;jettySize=auto;html=1;" edge="1" parent="1" source="VEwzymZRehj3RaECK4DL-27" target="VEwzymZRehj3RaECK4DL-32">
          <mxGeometry relative="1" as="geometry" />
        </mxCell>
        <mxCell id="VEwzymZRehj3RaECK4DL-27" value="fprintf(file,&quot;%s %d %s %s&quot;,students[i].fullName,students[i].age,students[i].phone,students[i].email)" style="rounded=0;whiteSpace=wrap;html=1;" vertex="1" parent="1">
          <mxGeometry x="490" y="1040" width="540" height="60" as="geometry" />
        </mxCell>
        <mxCell id="VEwzymZRehj3RaECK4DL-29" value="true" style="text;html=1;align=center;verticalAlign=middle;resizable=0;points=[];autosize=1;strokeColor=none;fillColor=none;" vertex="1" parent="1">
          <mxGeometry x="435" y="880" width="40" height="30" as="geometry" />
        </mxCell>
        <mxCell id="VEwzymZRehj3RaECK4DL-30" value="false" style="text;html=1;align=center;verticalAlign=middle;resizable=0;points=[];autosize=1;strokeColor=none;fillColor=none;" vertex="1" parent="1">
          <mxGeometry x="330" y="968" width="50" height="30" as="geometry" />
        </mxCell>
        <mxCell id="VEwzymZRehj3RaECK4DL-31" value="true" style="text;html=1;align=center;verticalAlign=middle;resizable=0;points=[];autosize=1;strokeColor=none;fillColor=none;" vertex="1" parent="1">
          <mxGeometry x="435" y="1040" width="40" height="30" as="geometry" />
        </mxCell>
        <mxCell id="VEwzymZRehj3RaECK4DL-34" style="edgeStyle=orthogonalEdgeStyle;rounded=0;orthogonalLoop=1;jettySize=auto;html=1;entryX=1.06;entryY=1.133;entryDx=0;entryDy=0;entryPerimeter=0;" edge="1" parent="1">
          <mxGeometry relative="1" as="geometry">
            <mxPoint x="379" y="1001.99" as="targetPoint" />
            <mxPoint x="1096" y="1040" as="sourcePoint" />
            <Array as="points">
              <mxPoint x="1096" y="1002" />
            </Array>
          </mxGeometry>
        </mxCell>
        <mxCell id="VEwzymZRehj3RaECK4DL-32" value="i++" style="rounded=0;whiteSpace=wrap;html=1;" vertex="1" parent="1">
          <mxGeometry x="1070" y="1040" width="60" height="60" as="geometry" />
        </mxCell>
        <mxCell id="VEwzymZRehj3RaECK4DL-39" value="" style="edgeStyle=orthogonalEdgeStyle;rounded=0;orthogonalLoop=1;jettySize=auto;html=1;" edge="1" parent="1" source="VEwzymZRehj3RaECK4DL-35" target="VEwzymZRehj3RaECK4DL-38">
          <mxGeometry relative="1" as="geometry" />
        </mxCell>
        <mxCell id="VEwzymZRehj3RaECK4DL-35" value="fclose(file)" style="rounded=0;whiteSpace=wrap;html=1;" vertex="1" parent="1">
          <mxGeometry x="320" y="1170" width="120" height="60" as="geometry" />
        </mxCell>
        <mxCell id="VEwzymZRehj3RaECK4DL-37" value="false" style="text;html=1;align=center;verticalAlign=middle;resizable=0;points=[];autosize=1;strokeColor=none;fillColor=none;" vertex="1" parent="1">
          <mxGeometry x="375" y="1130" width="50" height="30" as="geometry" />
        </mxCell>
        <mxCell id="VEwzymZRehj3RaECK4DL-41" value="" style="edgeStyle=orthogonalEdgeStyle;rounded=0;orthogonalLoop=1;jettySize=auto;html=1;" edge="1" parent="1" source="VEwzymZRehj3RaECK4DL-38" target="VEwzymZRehj3RaECK4DL-40">
          <mxGeometry relative="1" as="geometry" />
        </mxCell>
        <mxCell id="VEwzymZRehj3RaECK4DL-38" value="da ghi thong tin sinh vien vao file students.txt" style="shape=parallelogram;perimeter=parallelogramPerimeter;whiteSpace=wrap;html=1;fixedSize=1;" vertex="1" parent="1">
          <mxGeometry x="265" y="1280" width="230" height="60" as="geometry" />
        </mxCell>
        <mxCell id="VEwzymZRehj3RaECK4DL-40" value="end" style="ellipse;whiteSpace=wrap;html=1;" vertex="1" parent="1">
          <mxGeometry x="320" y="1380" width="120" height="80" as="geometry" />
        </mxCell>
      </root>
    </mxGraphModel>
  </diagram>
</mxfile>
